<svg width="97" height="25" viewBox="0 0 97 25" fill="none" xmlns="http://www.w3.org/2000/svg">
<g clip-path="url(#clip0_181_153)">
<mask id="mask0_181_153" style="mask-type:luminance" maskUnits="userSpaceOnUse" x="0" y="0" width="97" height="25">
<path d="M96.988 0.571533H0V24.9525H96.988V0.571533Z" fill="white"/>
</mask>
<g mask="url(#mask0_181_153)">
<path d="M93.5748 24.9525H50.157C49.2522 24.9517 48.3845 24.5873 47.7445 23.9392C47.1047 23.2913 46.7449 22.4126 46.744 21.4961V4.02791C46.7444 3.57362 46.8332 3.12385 47.0052 2.7043C47.1773 2.28474 47.4292 1.90361 47.7467 1.58265C48.0641 1.26169 48.4409 1.00721 48.8555 0.833721C49.2701 0.660234 49.7144 0.571143 50.163 0.571534H93.5806C94.4856 0.573113 95.352 0.937868 95.9918 1.58581C96.6309 2.23375 96.9906 3.11198 96.9912 4.02791V21.4961C96.9906 22.4131 96.6302 23.2921 95.9892 23.9402C95.3488 24.5885 94.4804 24.9525 93.5748 24.9525ZM50.163 1.80414C49.5807 1.80454 49.0225 2.03896 48.6107 2.4559C48.199 2.87285 47.9674 3.43825 47.9671 4.02791V21.4961C47.9674 22.0859 48.199 22.6515 48.6107 23.0686C49.0223 23.4858 49.5805 23.7207 50.163 23.7213H93.5806C94.1631 23.7207 94.7213 23.4858 95.133 23.0686C95.5447 22.6515 95.7766 22.0859 95.7766 21.4961V4.02791C95.7766 3.73544 95.7194 3.44587 95.6083 3.17577C95.4978 2.90567 95.3353 2.66034 95.1311 2.45379C94.9268 2.24726 94.684 2.08358 94.4168 1.9721C94.1496 1.86063 93.8638 1.80356 93.5748 1.80414H50.163Z" fill="#095092"/>
<path d="M14.3912 19.6493L8.28176 5.01155C8.1971 4.80208 8.05284 4.62288 7.86728 4.49674C7.68165 4.37059 7.46327 4.30322 7.23975 4.30322C7.01629 4.30322 6.79784 4.37059 6.61221 4.49674C6.42665 4.62288 6.28237 4.80208 6.19773 5.01155L0.0883201 19.6493C-0.0287828 19.9272 -0.0320801 20.2409 0.0791538 20.5213C0.190388 20.8016 0.407041 21.0257 0.681454 21.1443C0.955859 21.2629 1.26555 21.2662 1.54239 21.1537C1.81923 21.041 2.04055 20.8215 2.15766 20.5436L7.23975 8.35317L12.3219 20.5288C12.4389 20.8066 12.6603 21.0261 12.9371 21.1386C13.214 21.2513 13.5236 21.2479 13.7981 21.1294C14.0725 21.0109 14.2891 20.7867 14.4004 20.5062C14.5116 20.226 14.5083 19.9123 14.3912 19.6344V19.6493Z" fill="#095092"/>
<path d="M38.059 20.6927C38.0927 20.6365 38.1224 20.5778 38.1473 20.5169L44.2553 5.88503C44.3176 5.74672 44.3519 5.59716 44.3561 5.4452C44.3602 5.29327 44.3345 5.14198 44.28 5.00035C44.2255 4.85869 44.1434 4.72955 44.0388 4.62054C43.9342 4.51152 43.8091 4.42485 43.6709 4.36567C43.5326 4.30646 43.3839 4.27594 43.2338 4.27589C43.0837 4.27585 42.9352 4.30629 42.7969 4.36539C42.6585 4.42449 42.5333 4.51109 42.4287 4.62004C42.3241 4.72897 42.242 4.85807 42.1873 4.99969L37.1053 17.1738L32.0217 4.99672C31.9731 4.84739 31.8944 4.70991 31.7906 4.59293C31.6868 4.47597 31.5602 4.38208 31.4187 4.31718C31.2773 4.25229 31.1241 4.21779 30.9689 4.2159C30.8136 4.214 30.6597 4.24473 30.5168 4.30615C30.3738 4.36757 30.2449 4.45833 30.1384 4.57273C30.0318 4.68712 29.9499 4.82264 29.8977 4.97073C29.8455 5.11883 29.8242 5.27629 29.8352 5.43314C29.846 5.58999 29.889 5.74284 29.9613 5.88204L36.0588 20.5139C36.1368 20.709 36.2664 20.8784 36.4332 21.0035C36.6002 21.1286 36.798 21.2047 37.0048 21.2232C37.2119 21.2418 37.4198 21.202 37.6057 21.1084C37.7917 21.0147 37.9486 20.871 38.059 20.6927Z" fill="#095092"/>
<path d="M22.3962 21.2248H17.607C16.119 21.1654 16.1176 19.0116 17.607 18.9506H22.3962C23.6724 18.9489 24.8958 18.4349 25.7981 17.5213C26.7006 16.6077 27.2085 15.3689 27.2105 14.0767V11.452C27.2088 10.1594 26.7011 8.92029 25.7986 8.00639C24.8961 7.09243 23.6725 6.57825 22.3962 6.57668H17.607C16.122 6.51856 16.1146 4.36484 17.607 4.30225H22.3962C24.2698 4.30225 26.0668 5.05598 27.3917 6.39766C28.7165 7.73936 29.4608 9.55901 29.4608 11.4564V14.0767C29.4592 15.9731 28.7143 17.7912 27.3896 19.1316C26.0648 20.472 24.2689 21.2248 22.3962 21.2248Z" fill="#095092"/>
<path d="M60.3993 13.0421C60.3565 13.0097 60.3215 12.9675 60.2975 12.919C60.2734 12.8705 60.2611 12.8169 60.2611 12.7627C60.2611 12.7084 60.2734 12.6548 60.2975 12.6063C60.3215 12.5578 60.3565 12.5157 60.3993 12.4832C63.7565 9.96133 62.1242 4.3453 57.6941 4.29761H52.0071C51.8417 4.29761 51.6829 4.36417 51.5659 4.48269C51.4489 4.60121 51.3831 4.76195 51.3831 4.92956V10.6172C51.3832 10.7512 51.4256 10.8817 51.5037 10.9898L52.7813 12.7619L51.5037 14.5341C51.4258 14.6422 51.3834 14.7727 51.3831 14.9067V20.5929C51.3831 20.6757 51.3993 20.758 51.4306 20.8346C51.4619 20.9114 51.5079 20.9809 51.5659 21.0397C51.6239 21.0983 51.6926 21.1448 51.7684 21.1766C51.844 21.2085 51.9252 21.2247 52.0071 21.2247H57.6941C62.1228 21.1786 63.758 15.5595 60.3993 13.0421ZM57.6941 19.9609H52.6312V15.1124L54.0573 13.136C54.1351 13.0272 54.1768 12.8962 54.1766 12.7619C54.1771 12.628 54.1353 12.4975 54.0573 12.3893L52.6312 10.4085V5.56299H57.6941C62.011 5.74334 62.0095 11.9496 57.6941 12.13H55.7616C55.6013 12.1378 55.4499 12.208 55.3392 12.3258C55.2283 12.4436 55.1665 12.6 55.1665 12.7627C55.1665 12.9253 55.2283 13.0818 55.3392 13.1996C55.4499 13.3174 55.6013 13.3875 55.7616 13.3954H57.6941C62.0154 13.5742 62.0168 19.7819 57.6941 19.9609Z" fill="#095092"/>
<path d="M72.0647 21.2069C70.2592 21.2049 68.5282 20.4777 67.2519 19.1848C65.975 17.8919 65.2569 16.1389 65.255 14.3105V11.1805C65.6288 2.03358 78.5013 2.03358 78.8744 11.1805V14.3105C78.8725 16.1389 78.1544 17.8919 76.8782 19.1848C75.6013 20.4777 73.8702 21.2049 72.0647 21.2069ZM72.0647 5.54509C70.59 5.54668 69.1763 6.14061 68.1338 7.19655C67.0907 8.2525 66.5043 9.68424 66.503 11.1776V14.3075C66.8075 21.7792 77.322 21.7792 77.6264 14.3075V11.1776C77.6252 9.68424 77.0387 8.2525 75.9956 7.19655C74.9532 6.14061 73.5395 5.54668 72.0647 5.54509Z" fill="#095092"/>
<path d="M87.3374 12.9543C87.3008 12.897 87.2815 12.8302 87.2815 12.762C87.2815 12.6937 87.3008 12.627 87.3374 12.5697L92.0474 5.27689C92.138 5.13655 92.1695 4.96554 92.1354 4.80146C92.102 4.63739 92.005 4.49369 91.8663 4.40197C91.7275 4.31028 91.5586 4.27807 91.3968 4.31244C91.2349 4.34684 91.0929 4.44498 91.0024 4.58532L86.7593 11.1538C86.7278 11.2046 86.6848 11.2466 86.6334 11.2757C86.582 11.3048 86.5236 11.3201 86.4645 11.3201C86.406 11.3201 86.3476 11.3048 86.2962 11.2757C86.2448 11.2466 86.2012 11.2046 86.1703 11.1538L81.9407 4.58532C81.8945 4.51406 81.8354 4.4529 81.7654 4.40548C81.696 4.35809 81.6177 4.32539 81.5348 4.3094C81.4526 4.29338 81.3678 4.2944 81.2856 4.31236C81.2034 4.33032 81.1257 4.36485 81.0576 4.41391C80.9246 4.51373 80.8353 4.66161 80.8077 4.8266C80.7807 4.9916 80.8174 5.16095 80.9105 5.29925L85.5993 12.5697C85.6359 12.627 85.6558 12.6937 85.6558 12.762C85.6558 12.8302 85.6359 12.897 85.5993 12.9543L80.8899 20.2487C80.8052 20.3888 80.7775 20.5569 80.8135 20.7172C80.8495 20.8776 80.9452 21.0174 81.0813 21.1072C81.2175 21.1969 81.3826 21.2296 81.5419 21.1981C81.7012 21.1667 81.8418 21.0736 81.9343 20.9386L86.1716 14.3687C86.2031 14.3179 86.2461 14.2758 86.2975 14.2468C86.3489 14.2176 86.4073 14.2024 86.4664 14.2024C86.5255 14.2024 86.5833 14.2176 86.6347 14.2468C86.6861 14.2758 86.7298 14.3179 86.7606 14.3687L90.9979 20.9386C91.0904 21.0736 91.2317 21.1667 91.391 21.1981C91.5503 21.2296 91.7153 21.1969 91.8509 21.1072C91.987 21.0174 92.0834 20.8776 92.1187 20.7172C92.1547 20.5569 92.1271 20.3888 92.0429 20.2487L87.3374 12.9543Z" fill="#095092"/>
</g>
</g>
<defs>
<clipPath id="clip0_181_153">
<rect width="96.988" height="24.381" fill="white" transform="translate(0 0.571533)"/>
</clipPath>
</defs>
</svg>
