<svg width="25" height="25" viewBox="0 0 25 25" fill="none" xmlns="http://www.w3.org/2000/svg">
<path fill-rule="evenodd" clip-rule="evenodd" d="M9.07628 11.066C12.891 9.74992 13.5404 6.3217 13.0534 3.1697C13.0534 3.05596 13.1508 2.97473 13.2482 3.00722C16.9006 4.79444 21.0076 8.69384 21.0076 14.5429C21.0076 19.0272 17.5337 22.9916 12.4852 22.9916C10.6838 23.0736 8.90635 22.5528 7.43348 21.5114C5.96061 20.47 4.87618 18.9674 4.35135 17.2406C3.82652 15.5138 3.89118 13.6613 4.53512 11.9754C5.17906 10.2894 6.36562 8.86618 7.9075 7.9302C8.0049 7.86521 8.13476 7.9302 8.13476 8.04394C8.18346 8.64509 8.34579 10.1561 9.01135 11.066H9.07628V11.066Z" fill="black"/>
</svg>
