<svg width="22" height="20" viewBox="0 0 22 20" fill="none" xmlns="http://www.w3.org/2000/svg">
<path d="M5.26101 19.9995V6.50509H0.779649V19.9995H5.26148H5.26101ZM3.02127 4.66297C4.58368 4.66297 5.55639 3.62675 5.55639 2.33178C5.52715 1.00729 4.58368 0 3.05098 0C1.51722 0 0.515503 1.00729 0.515503 2.33166C0.515503 3.62663 1.48786 4.66285 2.9919 4.66285H3.02092L3.02127 4.66297ZM7.74151 19.9995H12.2225V12.4644C12.2225 12.0617 12.2518 11.6578 12.3702 11.3701C12.694 10.564 13.4313 9.72953 14.6696 9.72953C16.2907 9.72953 16.9396 10.9669 16.9396 12.7812V19.9995H21.4205V12.2622C21.4205 8.11749 19.21 6.18872 16.2617 6.18872C13.8445 6.18872 12.7829 7.54095 12.193 8.46195H12.2229V6.50556H7.74174C7.80023 7.77149 7.74139 20 7.74139 20L7.74151 19.9995Z" fill="black"/>
</svg>
