<svg width="26" height="16" viewBox="0 0 26 16" fill="none" xmlns="http://www.w3.org/2000/svg">
<path d="M10.297 7.41867C10.297 7.41867 12.7106 7.23512 12.7106 4.34454C12.7106 1.45635 11.0736 0.0326102 8.57155 0.0326102L0 0.019043V15.9803H8.77088C8.77088 15.9803 13.1563 16.1191 13.1563 11.1919C13.1563 11.1919 13.4785 7.41867 10.297 7.41867ZM3.18941 2.41323H7.57485C7.57485 2.41323 9.07547 2.43797 9.07547 4.38524C9.07547 6.40354 7.57485 6.40354 7.57485 6.40354H3.18941V2.41323ZM7.97353 13.5861H3.18941V8.79772H7.97353C7.97353 8.79772 10.3656 8.82246 10.3656 11.1919C10.3656 13.5614 8.31799 13.5861 7.97353 13.5861Z" fill="black"/>
<path d="M19.934 4.00977C13.9435 4.00977 13.9539 9.99523 13.9539 9.99523C13.9539 9.99523 13.5552 15.9807 19.934 15.9807C19.934 15.9807 25.5155 15.9807 25.5155 11.1923H22.3261C22.3261 11.1923 22.3261 13.5865 19.934 13.5865C19.934 13.5865 17.542 13.5865 17.542 10.3943C17.542 10.3943 23.9208 10.3943 25.5155 10.3943C25.5155 8.79814 25.5155 4.00977 19.934 4.00977ZM17.542 8.79814C17.542 8.79814 17.4893 6.40395 19.934 6.40395C22.3779 6.40395 22.3261 8.79814 22.3261 8.79814H17.542Z" fill="black"/>
<path d="M23.1237 1.61523H16.7448V3.21136H23.1237V1.61523Z" fill="black"/>
</svg>
