<svg width="25" height="25" viewBox="0 0 25 25" fill="none" xmlns="http://www.w3.org/2000/svg">
<path d="M2.5 22L3.86431 16.9358C2.76403 14.963 2.41446 12.6609 2.87974 10.452C3.34503 8.24311 4.59396 6.27551 6.39736 4.91028C8.20076 3.54505 10.4377 2.87376 12.6976 3.01961C14.9575 3.16546 17.0888 4.11865 18.7005 5.70428C20.3122 7.28991 21.2961 9.40161 21.4717 11.6519C21.6472 13.9022 21.0027 16.1401 19.6563 17.9549C18.31 19.7698 16.3521 21.0399 14.1419 21.5322C11.9318 22.0245 9.61768 21.7059 7.62421 20.6349L2.5 22ZM7.87129 18.7398L8.1882 18.9272C9.63211 19.7802 11.3186 20.1332 12.9848 19.9311C14.651 19.7291 16.2034 18.9834 17.4 17.8103C18.5965 16.6371 19.3702 15.1024 19.6002 13.4453C19.8303 11.7883 19.5039 10.1019 18.6719 8.64896C17.8399 7.19605 16.5491 6.05826 15.0005 5.41287C13.4519 4.76749 11.7327 4.65078 10.1106 5.08092C8.48854 5.51107 7.05481 6.46391 6.03283 7.79095C5.01085 9.118 4.45803 10.7447 4.46052 12.4176C4.45916 13.8047 4.84406 15.1649 5.57238 16.3469L5.77112 16.6735L5.00839 19.5L7.87129 18.7398Z" fill="black"/>
<path fill-rule="evenodd" clip-rule="evenodd" d="M15.5628 13.7181C15.377 13.5687 15.1595 13.4636 14.9268 13.4108C14.6941 13.3579 14.4524 13.3586 14.22 13.4129C13.8709 13.5575 13.6453 14.1035 13.4197 14.3765C13.3721 14.442 13.3022 14.4879 13.2231 14.5056C13.144 14.5234 13.0611 14.5117 12.99 14.4729C11.7118 13.974 10.6404 13.059 9.94982 11.8765C9.89092 11.8028 9.86304 11.7091 9.87206 11.6152C9.88108 11.5214 9.92629 11.4346 9.99816 11.3733C10.2498 11.1251 10.4345 10.8176 10.5353 10.4793C10.5577 10.1062 10.4719 9.73456 10.2882 9.40868C10.1462 8.9518 9.87595 8.54499 9.50938 8.2363C9.32031 8.15155 9.11067 8.12314 8.90576 8.15448C8.70085 8.18583 8.50941 8.2756 8.35455 8.41296C8.0857 8.64414 7.8723 8.93248 7.73008 9.25674C7.58785 9.58101 7.52042 9.93294 7.53274 10.2866C7.53357 10.4852 7.55883 10.683 7.60794 10.8755C7.73266 11.338 7.92447 11.7798 8.1773 12.187C8.3597 12.499 8.55873 12.801 8.77351 13.0917C9.47153 14.0468 10.349 14.8576 11.3571 15.4793C11.863 15.7952 12.4037 16.0521 12.9685 16.2448C13.5552 16.5099 14.203 16.6117 14.8431 16.5393C15.2078 16.4843 15.5533 16.3408 15.8493 16.1214C16.1452 15.902 16.3826 15.6135 16.5404 15.2813C16.6331 15.0805 16.6613 14.8561 16.621 14.6389C16.5243 14.1945 15.9281 13.9322 15.5628 13.7181Z" fill="black"/>
</svg>
