<svg width="25" height="25" viewBox="0 0 25 25" fill="none" xmlns="http://www.w3.org/2000/svg">
<path d="M19.4141 6.82812L16.1719 3.54688C15.8203 3.19531 15.3125 3 14.8438 3H6.875C5.82031 3 5 3.85938 5 4.875V21.125C5 22.1797 5.82031 23 6.875 23H18.125C19.1406 23 20 22.1797 20 21.125V8.15625C20 7.6875 19.7656 7.17969 19.4141 6.82812ZM17.9688 8H15V5.03125L17.9688 8ZM6.875 21.125V4.875H13.125V8.9375C13.125 9.48438 13.5156 9.875 14.0625 9.875H18.125V21.125H6.875ZM16.6406 15.5391C16.1719 15.0703 14.8047 15.1875 14.1016 15.2656C13.4375 14.875 13.0078 14.2891 12.6953 13.4688C12.8125 12.8438 13.0859 11.8672 12.8906 11.2812C12.7344 10.2656 11.4062 10.3438 11.2109 11.0469C11.0547 11.6719 11.2109 12.5703 11.4844 13.6641C11.0938 14.6016 10.5078 15.8516 10.1172 16.5938C9.33594 16.9844 8.28125 17.6094 8.125 18.3906C8.00781 19.0156 9.14062 20.5391 11.0938 17.1797C11.9531 16.8672 12.9297 16.5156 13.75 16.3594C14.4922 16.7891 15.3516 17.0234 15.9375 17.0234C16.9531 17.0234 17.0312 15.9297 16.6406 15.5391ZM8.90625 18.5859C9.10156 18.0391 9.84375 17.4141 10.0781 17.2188C9.33594 18.3906 8.90625 18.5859 8.90625 18.5859ZM12.0703 11.125C12.3828 11.125 12.3438 12.375 12.1484 12.7266C11.9922 12.1797 11.9922 11.125 12.0703 11.125ZM11.1328 16.4766C11.5234 15.8125 11.8359 15.0312 12.1094 14.3281C12.4219 14.9141 12.8125 15.3828 13.2812 15.6953C12.4609 15.8906 11.7578 16.2031 11.1328 16.4766ZM16.25 16.2812C16.25 16.2812 16.0547 16.5156 14.8047 15.9688C16.1719 15.8516 16.4062 16.1641 16.25 16.2812Z" fill="black"/>
</svg>
