<svg width="24" height="24" viewBox="0 0 24 24" fill="none" xmlns="http://www.w3.org/2000/svg">
<path d="M19.3438 6.3125L17.6562 4.625C16.8438 3.8125 15.5 3.8125 14.6875 4.625L4.75 14.5L4 19.1562C3.90625 19.6562 4.34375 20.0938 4.84375 20L9.5 19.25L19.375 9.3125C20.1875 8.5 20.1875 7.15625 19.3438 6.3125ZM10.25 13.75C10.375 13.875 10.5625 13.9375 10.75 13.9375C10.9062 13.9375 11.0938 13.875 11.2188 13.75L14.9375 10.0312L15.8438 10.9375L10.5625 16.25V14.9375H9.0625V13.4375H7.75L13.0625 8.15625L13.9688 9.0625L10.25 12.7812C9.96875 13.0625 9.96875 13.4688 10.25 13.75ZM6.5625 18.3438L5.65625 17.4375L6.0625 15.1562L6.625 14.5625H7.9375V16.0625H9.4375V17.375L8.84375 17.9375L6.5625 18.3438ZM18.4062 8.34375L16.875 9.875L14.125 7.125L15.6562 5.59375C15.9375 5.3125 16.4062 5.3125 16.6875 5.59375L18.375 7.28125C18.6875 7.59375 18.6875 8.0625 18.4062 8.34375Z" fill="black"/>
<circle cx="16.7444" cy="15.7444" r="4.36942" transform="rotate(-90 16.7444 15.7444)" fill="white" stroke="black"/>
<path d="M11.875 15.7444C11.875 15.7444 14.0607 20.6138 16.7444 20.6138C19.4281 20.6138 21.6138 18.4281 21.6138 15.7444C21.6138 13.0606 19.4558 10.8749 16.7444 10.8749C14.0607 10.8749 11.875 13.0606 11.875 15.7444ZM20.2858 15.7444C20.2858 17.7087 18.7088 19.2857 16.7444 19.2857C14.8077 19.2857 13.203 17.7087 13.203 15.7444C13.203 13.8077 14.8077 12.203 16.7444 12.203C18.7088 12.203 20.2858 13.8077 20.2858 15.7444ZM16.0804 13.531L16.0804 15.0803L14.531 15.0803C14.3097 15.0803 14.0884 15.3017 14.0884 15.523L14.0884 15.9657C14.0884 16.2147 14.3097 16.4084 14.531 16.4084L16.0804 16.4084L16.0804 17.9577C16.0804 18.2067 16.3017 18.4004 16.5231 18.4004L16.9658 18.4004C17.2148 18.4004 17.4084 18.2067 17.4084 17.9577L17.4084 16.4084L18.9578 16.4084C19.2068 16.4084 19.4005 16.2147 19.4005 15.9657L19.4005 15.523C19.4005 15.3017 19.2068 15.0803 18.9578 15.0803L17.4084 15.0803L17.4084 13.531C17.4084 13.3096 17.2148 13.0883 16.9658 13.0883L16.5231 13.0883C16.3017 13.0883 16.0804 13.3096 16.0804 13.531Z" fill="black"/>
</svg>
